<?xml version="1.0" standalone="no"?>
<!DOCTYPE svg PUBLIC "-//W3C//DTD SVG 20010904//EN"
 "http://www.w3.org/TR/2001/REC-SVG-20010904/DTD/svg10.dtd">
<svg version="1.0" xmlns="http://www.w3.org/2000/svg"
 width="890.000000pt" height="209.000000pt" viewBox="0 0 890.000000 209.000000"
 preserveAspectRatio="xMidYMid meet">
<metadata>
Created by potrace 1.16, written by Peter Selinger 2001-2019
</metadata>
<g transform="translate(0.000000,209.000000) scale(0.100000,-0.100000)"
fill="#000000" stroke="none">
<path d="M8270 1840 c0 -5 -7 -10 -16 -10 -9 0 -29 -14 -45 -31 -27 -29 -29
-36 -29 -113 0 -89 7 -106 69 -163 33 -31 39 -33 113 -33 45 0 78 4 78 10 0 6
7 10 16 10 19 0 34 14 67 68 23 35 27 53 27 111 0 49 -4 72 -15 81 -8 7 -15
17 -15 22 0 15 -27 38 -44 38 -9 0 -16 5 -16 10 0 6 -38 10 -95 10 -57 0 -95
-4 -95 -10z"/>
<path d="M7430 1711 c-6 -12 -10 -102 -10 -225 0 -168 3 -207 15 -220 13 -12
15 -74 15 -425 l0 -411 378 2 377 3 3 163 2 162 -220 0 -220 0 0 466 c0 302
-4 472 -10 485 -10 17 -23 19 -165 19 -142 0 -155 -2 -165 -19z"/>
<path d="M1420 1691 c-13 -26 -14 -433 0 -447 6 -6 11 -166 12 -419 l3 -410
380 0 380 0 0 160 0 160 -217 3 -217 2 -3 476 c-3 409 -5 476 -18 484 -8 5
-81 10 -162 10 -135 0 -148 -2 -158 -19z"/>
<path d="M3547 1703 c-11 -10 -8 -51 3 -58 6 -3 10 -17 10 -30 0 -13 7 -30 15
-39 8 -8 15 -26 15 -40 0 -14 5 -26 10 -26 6 0 10 -13 10 -30 0 -16 5 -30 10
-30 6 0 10 -13 10 -29 0 -17 5 -33 10 -36 6 -3 10 -19 10 -36 0 -16 5 -29 10
-29 6 0 10 -13 10 -30 0 -16 5 -30 10 -30 6 0 10 -13 10 -29 0 -17 5 -33 10
-36 6 -3 10 -17 10 -30 0 -13 5 -27 10 -30 6 -3 10 -17 10 -30 0 -13 5 -27 10
-30 6 -3 10 -17 10 -30 0 -13 7 -30 15 -39 8 -8 15 -26 15 -40 0 -14 5 -26 10
-26 6 0 10 -13 10 -30 0 -16 5 -30 10 -30 6 0 10 -13 10 -29 0 -17 5 -33 10
-36 6 -3 10 -19 10 -36 0 -16 5 -29 10 -29 6 0 10 -13 10 -30 0 -16 5 -30 10
-30 6 0 10 -13 10 -29 0 -17 5 -33 10 -36 6 -3 10 -17 10 -30 0 -13 5 -27 10
-30 6 -3 10 -17 10 -30 0 -13 5 -27 10 -30 6 -3 10 -16 10 -29 0 -13 8 -33 19
-44 17 -21 27 -22 169 -22 148 0 150 0 166 25 9 13 16 42 16 64 0 22 5 43 10
46 6 3 10 24 10 45 0 21 5 42 10 45 6 3 10 26 10 51 0 24 5 44 10 44 6 0 10
20 10 45 0 25 5 45 10 45 6 0 10 23 10 50 0 43 3 50 20 50 17 0 20 -7 20 -40
0 -22 5 -40 10 -40 6 0 10 -18 10 -40 0 -22 5 -40 10 -40 6 0 10 -16 10 -35 0
-19 5 -35 10 -35 6 0 10 -18 10 -39 0 -22 4 -42 9 -45 5 -3 11 -20 14 -38 10
-61 30 -128 39 -128 4 0 8 -7 8 -15 0 -13 24 -15 154 -15 152 0 154 0 170 25
9 13 16 33 16 44 0 11 5 23 10 26 6 3 10 21 10 40 0 19 5 37 10 40 6 3 10 19
10 35 0 16 5 32 10 35 6 3 10 22 10 41 0 19 5 34 10 34 6 0 10 16 10 35 0 19
5 35 10 35 6 0 10 18 10 40 0 22 5 40 10 40 6 0 10 12 10 26 0 14 7 32 15 40
8 9 15 28 15 44 0 16 5 32 10 35 6 3 10 19 10 35 0 16 5 32 10 35 6 3 10 21
10 40 0 19 5 37 10 40 6 3 10 19 10 36 0 16 5 29 10 29 6 0 10 13 10 29 0 17
5 33 10 36 6 3 10 21 10 40 0 19 5 37 10 40 6 3 10 19 10 36 0 16 5 29 10 29
6 0 10 18 10 40 0 22 5 40 10 40 6 0 10 11 10 25 0 14 7 36 16 50 9 14 14 39
12 62 l-3 38 -170 0 -170 0 -3 -30 c-2 -16 -8 -34 -13 -39 -5 -6 -9 -25 -9
-43 0 -18 -4 -33 -10 -33 -5 0 -10 -16 -10 -35 0 -19 -4 -35 -10 -35 -5 0 -10
-18 -10 -40 0 -22 -4 -40 -10 -40 -5 0 -10 -13 -10 -30 0 -16 -4 -30 -10 -30
-5 0 -10 -16 -10 -35 0 -19 -4 -35 -10 -35 -5 0 -10 -18 -10 -40 0 -22 -4 -40
-10 -40 -5 0 -10 -12 -10 -27 -1 -27 -20 -63 -34 -63 -3 0 -6 16 -6 35 0 19
-4 35 -10 35 -5 0 -10 18 -10 40 0 22 -4 40 -10 40 -5 0 -10 15 -10 34 0 19
-7 41 -15 50 -8 8 -15 31 -15 50 0 20 -4 36 -10 36 -5 0 -10 13 -10 29 0 17
-4 33 -10 36 -5 3 -10 24 -10 46 0 21 -4 39 -10 39 -5 0 -10 18 -10 40 0 22
-4 40 -10 40 -5 0 -10 11 -10 25 l0 25 -160 0 c-136 0 -160 -2 -160 -15 0 -8
-4 -15 -10 -15 -5 0 -10 -22 -10 -50 0 -27 -4 -50 -10 -50 -5 0 -10 -18 -10
-39 0 -22 -4 -43 -10 -46 -5 -3 -10 -28 -10 -56 0 -27 -4 -49 -10 -49 -5 0
-10 -17 -10 -37 0 -21 -7 -47 -15 -57 -8 -11 -15 -37 -15 -57 0 -21 -4 -41
-10 -44 -5 -3 -10 -24 -10 -46 0 -50 -25 -54 -34 -4 -4 19 -11 35 -16 35 -6 0
-10 14 -10 30 0 17 -4 30 -10 30 -5 0 -10 13 -10 29 0 17 -4 33 -10 36 -5 3
-10 17 -10 30 0 13 -4 27 -10 30 -5 3 -10 19 -10 36 0 16 -4 29 -10 29 -5 0
-10 14 -10 30 0 17 -4 30 -10 30 -5 0 -10 13 -10 29 0 17 -4 33 -10 36 -5 3
-10 15 -10 26 0 10 -4 27 -9 37 -5 9 -16 34 -25 55 l-16 37 -163 0 c-90 0
-167 -3 -170 -7z"/>
<path d="M5577 1704 c-4 -4 -7 -20 -7 -36 0 -15 -4 -28 -10 -28 -5 0 -10 -13
-10 -30 0 -16 -4 -30 -10 -30 -5 0 -10 -13 -10 -30 0 -16 -4 -30 -10 -30 -5 0
-10 -10 -10 -23 0 -13 -7 -32 -15 -43 -8 -10 -15 -29 -15 -41 0 -12 -4 -25
-10 -28 -5 -3 -10 -17 -10 -30 0 -13 -4 -27 -10 -30 -5 -3 -10 -19 -10 -36 0
-16 -4 -29 -10 -29 -5 0 -10 -13 -10 -30 0 -16 -4 -30 -10 -30 -5 0 -10 -13
-10 -30 0 -16 -4 -30 -10 -30 -5 0 -10 -16 -10 -35 0 -19 -4 -35 -10 -35 -5 0
-10 -13 -10 -30 0 -16 -4 -30 -10 -30 -5 0 -10 -13 -10 -30 0 -16 -4 -30 -10
-30 -5 0 -10 -16 -10 -35 0 -21 -5 -35 -12 -35 -7 0 -23 -35 -36 -78 -13 -42
-28 -85 -33 -94 -5 -10 -9 -27 -9 -37 0 -11 -4 -23 -10 -26 -5 -3 -10 -17 -10
-30 0 -13 -4 -27 -10 -30 -5 -3 -10 -19 -10 -36 0 -16 -4 -29 -10 -29 -5 0
-10 -20 -10 -45 l0 -45 168 2 c165 3 167 3 170 26 2 12 8 22 13 22 5 0 9 14 9
30 0 17 5 30 10 30 6 0 10 9 10 20 0 19 7 20 176 20 190 0 204 -4 204 -54 0
-14 4 -26 9 -26 6 0 11 -15 13 -32 l3 -33 325 0 325 0 3 23 c2 12 8 22 13 22
5 0 9 14 9 30 0 17 5 30 10 30 6 0 10 9 10 20 0 19 7 20 173 20 179 0 197 -4
197 -42 0 -10 4 -26 9 -36 6 -9 12 -29 16 -44 l5 -28 163 0 c124 0 168 3 182
14 14 10 16 17 9 27 -9 12 -20 44 -39 117 -4 12 -11 22 -16 22 -5 0 -9 14 -9
30 0 17 -4 30 -10 30 -5 0 -10 13 -10 29 0 17 -4 33 -10 36 -5 3 -10 19 -10
36 0 16 -4 29 -10 29 -5 0 -10 14 -10 30 0 17 -4 30 -10 30 -5 0 -10 13 -10
29 0 17 -4 33 -10 36 -5 3 -10 17 -10 30 0 13 -4 27 -10 30 -5 3 -10 19 -10
36 0 16 -4 29 -10 29 -5 0 -10 13 -10 29 0 17 -4 33 -10 36 -5 3 -10 17 -10
31 0 14 -7 27 -15 30 -9 4 -15 19 -15 35 0 16 -4 29 -10 29 -5 0 -10 16 -10
35 0 19 -4 35 -10 35 -5 0 -10 14 -10 30 0 17 -4 30 -10 30 -5 0 -10 18 -10
40 0 22 -4 40 -10 40 -5 0 -10 14 -10 30 0 17 -4 30 -10 30 -5 0 -10 13 -10
29 0 17 -4 33 -10 36 -5 3 -10 16 -10 29 0 12 -4 26 -9 32 -5 5 -11 23 -13 39
l-3 30 -167 3 -168 2 0 -23 c0 -13 -7 -32 -15 -43 -8 -10 -15 -29 -15 -41 0
-12 -4 -25 -10 -28 -5 -3 -10 -17 -10 -30 0 -13 -4 -27 -10 -30 -5 -3 -10 -19
-10 -36 0 -16 -4 -29 -10 -29 -5 0 -10 -13 -10 -30 0 -16 -4 -30 -10 -30 -5 0
-10 -13 -10 -29 0 -17 -4 -33 -10 -36 -5 -3 -10 -19 -10 -36 0 -16 -4 -29 -10
-29 -5 0 -10 -13 -10 -30 0 -16 -4 -30 -10 -30 -5 0 -10 -13 -10 -30 0 -16 -4
-30 -10 -30 -5 0 -10 -16 -10 -35 0 -24 -5 -35 -15 -35 -10 0 -15 -10 -15 -29
0 -17 -4 -33 -10 -36 -5 -3 -10 -17 -10 -30 0 -13 -4 -27 -10 -30 -5 -3 -10
-19 -10 -36 0 -16 -4 -29 -10 -29 -5 0 -10 -9 -10 -19 0 -11 -4 -23 -10 -26
-5 -3 -10 -17 -10 -30 0 -13 -4 -27 -10 -30 -5 -3 -10 -19 -10 -36 0 -16 -4
-29 -10 -29 -5 0 -10 -13 -10 -30 0 -16 -4 -30 -10 -30 -5 0 -10 -13 -10 -29
0 -17 -4 -33 -10 -36 -5 -3 -10 -15 -10 -26 0 -10 -4 -19 -10 -19 -5 0 -10 13
-10 29 0 17 -4 33 -10 36 -5 3 -10 17 -10 30 0 13 -4 27 -10 30 -5 3 -10 17
-10 30 0 13 -4 27 -10 30 -5 3 -10 17 -10 30 0 13 -7 30 -15 39 -8 8 -15 26
-15 40 0 14 -4 26 -10 26 -5 0 -10 13 -10 29 0 17 -4 33 -10 36 -5 3 -10 19
-10 36 0 16 -4 29 -10 29 -5 0 -10 14 -10 30 0 17 -4 30 -10 30 -5 0 -10 13
-10 29 0 17 -4 33 -10 36 -5 3 -10 19 -10 36 0 16 -4 29 -10 29 -5 0 -10 14
-10 30 0 17 -4 30 -10 30 -5 0 -10 13 -10 29 0 17 -4 33 -10 36 -5 3 -10 17
-10 31 0 14 -7 27 -15 30 -10 4 -15 20 -15 45 0 21 -4 39 -10 39 -5 0 -10 14
-10 30 0 17 -4 30 -10 30 -5 0 -10 13 -10 29 0 17 -4 33 -10 36 -5 3 -10 19
-10 36 0 16 -4 29 -9 29 -6 0 -11 15 -13 33 l-3 32 -161 3 c-88 1 -163 -1
-167 -4z"/>
<path d="M662 1678 c-6 -6 -12 -22 -12 -34 0 -13 -4 -26 -10 -29 -5 -3 -10
-17 -10 -30 0 -13 -4 -27 -10 -30 -5 -3 -10 -17 -10 -30 0 -13 -4 -27 -10 -30
-5 -3 -10 -19 -10 -36 0 -16 -4 -29 -10 -29 -5 0 -10 -13 -10 -30 0 -16 -4
-30 -10 -30 -5 0 -10 -13 -10 -29 0 -17 -4 -33 -10 -36 -5 -3 -10 -19 -10 -36
0 -16 -4 -29 -10 -29 -5 0 -10 -13 -10 -30 0 -16 -4 -30 -10 -30 -5 0 -10 -12
-10 -26 0 -14 -7 -32 -15 -40 -8 -9 -15 -26 -15 -40 0 -13 -4 -24 -10 -24 -5
0 -10 -13 -10 -29 0 -17 -4 -33 -10 -36 -5 -3 -10 -17 -10 -30 0 -13 -4 -27
-10 -30 -5 -3 -10 -19 -10 -36 0 -16 -4 -29 -10 -29 -5 0 -10 -9 -10 -19 0
-11 -4 -23 -10 -26 -6 -3 -10 -17 -10 -30 0 -13 -4 -27 -10 -30 -6 -3 -10 -19
-10 -36 0 -16 -4 -29 -10 -29 -5 0 -10 -13 -10 -30 0 -16 -4 -30 -10 -30 -5 0
-10 -13 -10 -28 0 -15 -4 -32 -8 -37 -16 -19 -43 -105 -40 -127 3 -23 4 -23
173 -23 169 0 170 0 173 23 2 12 8 22 13 22 5 0 9 14 9 30 0 17 5 30 10 30 6
0 10 9 10 20 0 19 7 20 173 20 187 0 197 -3 197 -52 0 -15 4 -28 9 -28 6 0 11
-15 13 -32 l3 -33 165 -2 c91 -2 171 1 178 6 16 10 7 75 -14 96 -8 7 -14 27
-14 44 0 17 -4 31 -10 31 -5 0 -10 14 -10 30 0 17 -4 30 -10 30 -5 0 -10 14
-10 30 0 17 -4 30 -10 30 -5 0 -10 13 -10 29 0 17 -4 33 -10 36 -5 3 -10 19
-10 36 0 16 -4 29 -10 29 -5 0 -10 14 -10 30 0 17 -4 30 -10 30 -5 0 -10 13
-10 29 0 17 -4 33 -10 36 -5 3 -10 17 -10 30 0 13 -4 27 -10 30 -5 3 -10 19
-10 35 0 15 -7 30 -15 34 -9 3 -15 18 -15 36 0 16 -4 30 -10 30 -5 0 -10 14
-10 30 0 17 -4 30 -10 30 -5 0 -10 13 -10 29 0 17 -4 33 -10 36 -5 3 -10 19
-10 36 0 16 -4 29 -10 29 -5 0 -10 15 -10 34 0 19 -4 38 -10 41 -5 3 -10 19
-10 36 0 16 -4 29 -10 29 -5 0 -10 13 -10 28 0 15 -4 32 -8 38 -5 5 -14 29
-21 54 -23 79 -12 75 -182 78 -112 2 -158 -1 -167 -10z"/>
<path d="M2917 1683 c-4 -3 -7 -19 -7 -35 0 -15 -4 -28 -10 -28 -5 0 -10 -13
-10 -30 0 -16 -4 -30 -10 -30 -5 0 -10 -13 -10 -29 0 -17 -4 -33 -10 -36 -5
-3 -10 -19 -10 -36 0 -16 -4 -29 -10 -29 -5 0 -10 -13 -10 -30 0 -16 -4 -30
-10 -30 -5 0 -10 -12 -10 -26 0 -14 -7 -32 -15 -40 -8 -9 -15 -26 -15 -40 0
-13 -4 -24 -10 -24 -5 0 -10 -13 -10 -29 0 -17 -4 -33 -10 -36 -5 -3 -10 -17
-10 -30 0 -13 -4 -27 -10 -30 -5 -3 -10 -19 -10 -36 0 -16 -4 -29 -10 -29 -5
0 -10 -13 -10 -30 0 -16 -4 -30 -10 -30 -5 0 -10 -13 -10 -29 0 -17 -4 -33
-10 -36 -5 -3 -10 -19 -10 -36 0 -16 -4 -29 -10 -29 -5 0 -10 -9 -10 -20 0
-11 -4 -20 -10 -20 -5 0 -10 -13 -10 -28 0 -15 -4 -32 -9 -37 -12 -12 -61
-157 -61 -179 0 -9 -4 -16 -10 -16 -5 0 -10 -13 -10 -28 0 -15 -5 -33 -11 -39
-6 -6 -9 -26 -7 -44 l3 -34 168 -3 c160 -2 167 -2 167 17 0 11 5 23 10 26 6 3
10 19 10 36 0 16 5 29 10 29 6 0 10 9 10 20 0 19 7 20 176 20 190 0 204 -4
204 -54 0 -14 4 -26 9 -26 6 0 11 -15 13 -32 l3 -33 155 -3 c177 -3 200 0 200
28 0 11 -4 20 -10 20 -5 0 -10 14 -10 30 0 17 -4 30 -10 30 -5 0 -10 13 -10
29 0 17 -4 33 -10 36 -5 3 -10 19 -10 36 0 16 -4 29 -10 29 -5 0 -10 14 -10
30 0 17 -4 30 -10 30 -5 0 -10 13 -10 29 0 17 -4 33 -10 36 -5 3 -10 17 -10
30 0 13 -4 27 -10 30 -5 3 -10 17 -10 29 0 13 -7 29 -15 36 -8 7 -15 25 -15
41 0 16 -4 29 -10 29 -5 0 -10 14 -10 30 0 17 -4 30 -10 30 -5 0 -10 13 -10
29 0 17 -4 33 -10 36 -5 3 -10 19 -10 36 0 16 -4 29 -10 29 -5 0 -10 14 -10
30 0 17 -4 30 -10 30 -5 0 -10 14 -10 30 0 17 -4 30 -10 30 -5 0 -10 13 -10
29 0 17 -4 33 -10 36 -5 3 -10 16 -10 28 0 12 -9 47 -21 77 -12 30 -23 65 -26
78 -3 12 -9 25 -14 28 -5 3 -9 18 -9 35 0 16 -4 29 -10 29 -5 0 -10 13 -10 29
0 17 -6 31 -16 35 -21 8 -309 8 -317 -1z"/>
</g>
</svg>
